<svg width="64" height="64" viewBox="0 0 64 64" fill="none" xmlns="http://www.w3.org/2000/svg">
<g clip-path="url(#clip0_23_47)">
<g clip-path="url(#clip1_23_47)">
<path d="M27.2715 22.8576L13.1795 22.8576C10.7079 22.8576 8.33748 23.8551 6.58977 25.6305C4.84205 27.406 3.8602 29.814 3.8602 32.3249C3.8602 34.8358 4.84205 37.2438 6.58977 39.0193C8.33748 40.7947 10.7079 41.7922 13.1795 41.7922L50.4585 41.7905C52.9301 41.7905 55.3005 40.7931 57.0482 39.0176C57.9136 38.1385 58.6001 37.0949 59.0684 35.9462C59.5368 34.7976 59.7778 33.5665 59.7778 32.3233C59.7778 31.08 59.5368 29.8489 59.0684 28.7003C58.6001 27.5517 57.9136 26.508 57.0482 25.6289C56.1829 24.7498 55.1555 24.0524 54.0248 23.5767C52.8942 23.1009 51.6823 22.856 50.4585 22.856L27.2715 22.8576Z" fill="white" stroke="#F6B6A9" stroke-width="3.5" stroke-linecap="round"/>
<path d="M41.1375 41.7922L41.1375 51.2594C41.1378 52.6959 40.8163 54.1136 40.1973 55.4052C39.5783 56.6968 38.6781 57.8283 37.5649 58.7141C36.4517 59.5998 35.1546 60.2166 33.772 60.5177C32.3894 60.8188 30.9574 60.7963 29.5846 60.452M22.4988 41.7922L22.4988 51.2594C22.4988 52.3002 22.6659 53.3038 22.9713 54.2412M22.4988 22.8576L22.4988 13.3904C22.4988 12.1471 22.7399 10.916 23.2082 9.76741C23.6766 8.61879 24.363 7.57513 25.2284 6.69601C26.0938 5.81689 27.1211 5.11954 28.2518 4.64377C29.3825 4.16799 30.5943 3.92311 31.8182 3.92311C33.042 3.92311 34.2539 4.16799 35.3845 4.64377C36.5152 5.11954 37.5426 5.81689 38.4079 6.69601C39.2733 7.57513 39.9598 8.61879 40.4281 9.76741C40.8965 10.916 41.1375 12.1471 41.1375 13.3904L41.1359 22.8593" stroke="#F6B6A9" stroke-width="3.5" stroke-linecap="round"/>
<path d="M14.486 35.846C14.4865 36.0929 14.5841 36.317 14.7437 36.479C14.8256 36.5622 14.923 36.628 15.0299 36.673C15.1369 36.7179 15.2515 36.741 15.3671 36.7409C15.853 36.7418 16.2457 36.3429 16.2449 35.8491C16.2441 35.3554 15.85 34.955 15.3639 34.9541C14.8778 34.9533 14.4852 35.3521 14.486 35.846Z" fill="#F6B6A9"/>
<path d="M14.4783 32.3725C14.4788 32.6194 14.578 32.842 14.7376 33.0041C14.8971 33.1662 15.1179 33.2687 15.3609 33.2691C15.847 33.27 16.2412 32.8696 16.2404 32.3758C16.2395 31.8819 15.8439 31.48 15.3578 31.4792C14.8716 31.4783 14.4775 31.8787 14.4783 32.3725Z" fill="#F6B6A9"/>
<path d="M18.007 35.8525C18.0074 36.0994 18.1051 36.3236 18.2647 36.4856C18.3466 36.5687 18.444 36.6346 18.5509 36.6795C18.6578 36.7245 18.7724 36.7475 18.888 36.7474C19.374 36.7484 19.7667 36.3495 19.7658 35.8556C19.765 35.3618 19.3709 34.9615 18.8848 34.9606C18.3988 34.9597 18.0061 35.3586 18.007 35.8525Z" fill="#F6B6A9"/>
<path d="M17.9992 32.3789C17.9997 32.626 18.0989 32.8484 18.2585 33.0106C18.4182 33.1729 18.6388 33.2751 18.8818 33.2756C19.3679 33.2765 19.7621 32.876 19.7612 32.3822C19.7603 31.8884 19.3647 31.4865 18.8786 31.4856C18.3926 31.4847 17.9984 31.8852 17.9992 32.3789Z" fill="#F6B6A9"/>
<path d="M14.4734 28.6416C14.4738 28.8885 14.5715 29.1127 14.731 29.2748C14.8129 29.3579 14.9102 29.4238 15.0172 29.4687C15.1241 29.5137 15.2387 29.5367 15.3543 29.5365C15.8403 29.5375 16.2331 29.1386 16.2321 28.6447C16.2313 28.151 15.8372 27.7507 15.3512 27.7499C14.8651 27.7488 14.4724 28.1478 14.4734 28.6416Z" fill="#F6B6A9"/>
<path d="M21.6781 35.8592C21.6785 36.106 21.7763 36.3303 21.9358 36.4923C22.0179 36.5757 22.1154 36.6419 22.2226 36.6871C22.3298 36.7323 22.4447 36.7556 22.5606 36.7557C23.0466 36.7567 23.4394 36.3577 23.4384 35.8639C23.4377 35.3702 23.042 34.9682 22.5559 34.9674C22.0699 34.9664 21.6771 35.3653 21.6781 35.8592Z" fill="#F6B6A9"/>
<path d="M21.6719 32.3841C21.6724 32.631 21.7717 32.8568 21.9312 33.0188C22.0132 33.1019 22.1105 33.1679 22.2174 33.2128C22.3243 33.2577 22.4389 33.2808 22.5545 33.2807C23.0405 33.2816 23.4332 32.8827 23.4323 32.3889C23.4314 31.8951 23.0358 31.4932 22.5497 31.4923C22.0637 31.4914 21.671 31.8903 21.6719 32.3841Z" fill="#F6B6A9"/>
<path d="M17.9942 28.6481C17.9947 28.8949 18.0924 29.1191 18.2519 29.2812C18.3339 29.3643 18.4312 29.4302 18.5381 29.4752C18.6451 29.5201 18.7597 29.5432 18.8753 29.5431C19.3613 29.544 19.754 29.1451 19.7531 28.6513C19.7523 28.1576 19.3582 27.7572 18.8721 27.7563C18.386 27.7553 17.9933 28.1542 17.9942 28.6481Z" fill="#F6B6A9"/>
<path d="M21.6653 28.6548C21.6658 28.9017 21.7635 29.1259 21.923 29.2879C22.0052 29.3713 22.1026 29.4376 22.2098 29.4828C22.3171 29.528 22.4319 29.5513 22.5478 29.5515C23.034 29.5523 23.4266 29.1535 23.4258 28.6596C23.4248 28.1659 23.0292 27.764 22.5432 27.763C22.0571 27.7621 21.6645 28.161 21.6653 28.6548Z" fill="#F6B6A9"/>
<path d="M40.7331 35.8957C40.7334 36.1427 40.8328 36.3651 40.9924 36.5272C41.152 36.6894 41.371 36.7903 41.6141 36.7908C42.1002 36.7916 42.4944 36.3912 42.4935 35.8974C42.4926 35.4037 42.0986 35.0033 41.6125 35.0024C41.1264 35.0015 40.7321 35.402 40.7331 35.8957Z" fill="#F6B6A9"/>
<path d="M40.7269 32.4208C40.7273 32.6677 40.8267 32.8903 40.9862 33.0523C41.1457 33.2144 41.3648 33.3153 41.6078 33.3157C42.094 33.3166 42.4882 32.9162 42.4873 32.4223C42.4864 31.9286 42.0923 31.5283 41.6064 31.5274C41.1202 31.5265 40.726 31.9269 40.7269 32.4208Z" fill="#F6B6A9"/>
<path d="M44.2539 35.9022C44.2544 36.1492 44.3536 36.3716 44.5133 36.5338C44.5948 36.6171 44.6917 36.6833 44.7984 36.7285C44.9051 36.7737 45.0195 36.7971 45.1349 36.7972C45.621 36.798 46.0151 36.3976 46.0144 35.9038C46.0135 35.4101 45.6194 35.0098 45.1333 35.0088C44.6472 35.008 44.2531 35.4084 44.2539 35.9022Z" fill="#F6B6A9"/>
<path d="M44.2478 32.4272C44.2483 32.6741 44.3475 32.8967 44.507 33.0588C44.6667 33.2209 44.8858 33.3218 45.1289 33.3222C45.615 33.3231 46.0091 32.9226 46.0083 32.4288C46.0075 31.9351 45.6134 31.5347 45.1273 31.5338C44.6411 31.5329 44.247 31.9334 44.2478 32.4272Z" fill="#F6B6A9"/>
<path d="M40.7204 28.6914C40.7209 28.9383 40.8201 29.1609 40.9797 29.3231C41.0612 29.4064 41.1582 29.4725 41.2649 29.5177C41.3716 29.5629 41.4859 29.5862 41.6014 29.5864C42.0875 29.5873 42.4817 29.1869 42.4808 28.693C42.4799 28.1992 42.0859 27.7989 41.5998 27.798C41.1137 27.7971 40.7195 28.1976 40.7204 28.6914Z" fill="#F6B6A9"/>
<path d="M47.9251 35.9089C47.9256 36.1558 48.0248 36.3785 48.1844 36.5406C48.2659 36.6239 48.3629 36.6901 48.4696 36.7353C48.5763 36.7805 48.6907 36.8038 48.8061 36.8039C49.2922 36.8048 49.6864 36.4044 49.6855 35.9106C49.6847 35.4168 49.2906 35.0164 48.8045 35.0155C48.3184 35.0147 47.9242 35.4151 47.9251 35.9089Z" fill="#F6B6A9"/>
<path d="M47.919 32.4339C47.9194 32.6809 48.0187 32.9034 48.1783 33.0654C48.2598 33.1488 48.3567 33.215 48.4634 33.2602C48.5701 33.3055 48.6845 33.3288 48.7999 33.329C49.286 33.3297 49.6802 32.9293 49.6794 32.4356C49.6785 31.9417 49.2844 31.5414 48.7984 31.5406C48.3123 31.5397 47.9181 31.9401 47.919 32.4339Z" fill="#F6B6A9"/>
<path d="M44.2413 28.6979C44.2417 28.9448 44.341 29.1673 44.5006 29.3294C44.5821 29.4127 44.679 29.4789 44.7857 29.5241C44.8924 29.5693 45.0067 29.5926 45.1222 29.5928C45.6083 29.5937 46.0026 29.1932 46.0016 28.6994C46.0008 28.2057 45.6067 27.8053 45.1207 27.8045C44.6346 27.8035 44.2403 28.204 44.2413 28.6979Z" fill="#F6B6A9"/>
<path d="M47.9139 28.703C47.9144 28.9499 48.0121 29.174 48.1716 29.3361C48.3313 29.4983 48.5503 29.5992 48.7934 29.5996C49.2795 29.6005 49.6737 29.2 49.6729 28.7062C49.672 28.2125 49.2779 27.8121 48.7918 27.8112C48.3057 27.8103 47.9131 28.2092 47.9139 28.703Z" fill="#F6B6A9"/>
<mask id="path-4-inside-1_23_47" fill="white">
<path d="M29.7337 35.6456L29.7353 36.6094L35.1235 36.6183L35.1219 35.6545L29.7337 35.6456Z"/>
<path d="M27.6896 29.1843L27.6985 34.5727L28.6622 34.5742L28.6535 29.1859L27.6896 29.1843Z"/>
<path d="M29.7186 27.1554L29.7201 28.1192L35.1096 28.1268L35.1092 27.1643L29.7186 27.1554Z"/>
<path d="M36.1811 29.1983L36.1899 34.5865L37.1524 34.5892L37.1448 29.2L36.1811 29.1983Z"/>
</mask>
<path d="M29.7353 36.6094L28.7353 36.611L28.7369 37.6078L29.7336 37.6094L29.7353 36.6094ZM29.7337 35.6456L29.7353 34.6456L28.732 34.6439L28.7337 35.6472L29.7337 35.6456ZM35.1219 35.6545L36.1219 35.6528L36.1203 34.6561L35.1236 34.6545L35.1219 35.6545ZM35.1235 36.6183L35.1219 37.6183L36.1252 37.62L36.1235 36.6167L35.1235 36.6183ZM27.6985 34.5727L26.6985 34.5743L26.7002 35.5711L27.697 35.5727L27.6985 34.5727ZM27.6896 29.1843L27.6913 28.1843L26.688 28.1827L26.6897 29.186L27.6896 29.1843ZM28.6535 29.1859L29.6535 29.1843L29.6519 28.1876L28.6551 28.1859L28.6535 29.1859ZM28.6622 34.5742L28.6607 35.5742L29.6639 35.5758L29.6622 34.5726L28.6622 34.5742ZM29.7201 28.1192L28.7202 28.1208L28.7218 29.1178L29.7187 29.1192L29.7201 28.1192ZM29.7186 27.1554L29.7202 26.1554L28.7169 26.1537L28.7186 27.157L29.7186 27.1554ZM35.1092 27.1643L36.1092 27.1639L36.1089 26.1659L35.1109 26.1643L35.1092 27.1643ZM35.1096 28.1268L35.1082 29.1268L36.1099 29.1283L36.1096 28.1265L35.1096 28.1268ZM36.1899 34.5865L35.1899 34.5882L35.1915 35.5837L36.1871 35.5865L36.1899 34.5865ZM36.1811 29.1983L36.1829 28.1983L35.1795 28.1965L35.1811 29.1999L36.1811 29.1983ZM37.1448 29.2L38.1448 29.1986L38.1434 28.2017L37.1466 28.2L37.1448 29.2ZM37.1524 34.5892L37.1496 35.5892L38.1538 35.592L38.1524 34.5878L37.1524 34.5892ZM29.7353 36.6094L30.7353 36.6078L30.7337 35.6439L29.7337 35.6456L28.7337 35.6472L28.7353 36.611L29.7353 36.6094ZM29.7337 35.6456L29.732 36.6456L35.1203 36.6545L35.1219 35.6545L35.1236 34.6545L29.7353 34.6456L29.7337 35.6456ZM35.1219 35.6545L34.1219 35.6561L34.1235 36.6199L35.1235 36.6183L36.1235 36.6167L36.1219 35.6528L35.1219 35.6545ZM35.1235 36.6183L35.1252 35.6183L29.7369 35.6094L29.7353 36.6094L29.7336 37.6094L35.1219 37.6183L35.1235 36.6183ZM27.6985 34.5727L28.6985 34.571L28.6896 29.1827L27.6896 29.1843L26.6897 29.186L26.6985 34.5743L27.6985 34.5727ZM27.6896 29.1843L27.688 30.1843L28.6518 30.1859L28.6535 29.1859L28.6551 28.1859L27.6913 28.1843L27.6896 29.1843ZM28.6535 29.1859L27.6535 29.1875L27.6622 34.5758L28.6622 34.5742L29.6622 34.5726L29.6535 29.1843L28.6535 29.1859ZM28.6622 34.5742L28.6638 33.5742L27.7001 33.5727L27.6985 34.5727L27.697 35.5727L28.6607 35.5742L28.6622 34.5742ZM29.7201 28.1192L30.7201 28.1175L30.7186 27.1537L29.7186 27.1554L28.7186 27.157L28.7202 28.1208L29.7201 28.1192ZM29.7186 27.1554L29.7169 28.1553L35.1076 28.1642L35.1092 27.1643L35.1109 26.1643L29.7202 26.1554L29.7186 27.1554ZM35.1092 27.1643L34.1092 27.1646L34.1096 28.1272L35.1096 28.1268L36.1096 28.1265L36.1092 27.1639L35.1092 27.1643ZM35.1096 28.1268L35.111 27.1268L29.7216 27.1192L29.7201 28.1192L29.7187 29.1192L35.1082 29.1268L35.1096 28.1268ZM36.1899 34.5865L37.1899 34.5849L37.1811 29.1967L36.1811 29.1983L35.1811 29.1999L35.1899 34.5882L36.1899 34.5865ZM36.1811 29.1983L36.1794 30.1983L37.1431 30.2L37.1448 29.2L37.1466 28.2L36.1829 28.1983L36.1811 29.1983ZM37.1448 29.2L36.1448 29.2014L36.1524 34.5906L37.1524 34.5892L38.1524 34.5878L38.1448 29.1986L37.1448 29.2ZM37.1524 34.5892L37.1552 33.5892L36.1927 33.5865L36.1899 34.5865L36.1871 35.5865L37.1496 35.5892L37.1524 34.5892Z" fill="#F6B6A9" mask="url(#path-4-inside-1_23_47)"/>
</g>
</g>
<defs>
<clipPath id="clip0_23_47">
<rect width="64" height="64" fill="white"/>
</clipPath>
<clipPath id="clip1_23_47">
<rect width="64" height="64" fill="white"/>
</clipPath>
</defs>
</svg>
