<svg width="64" height="64" viewBox="0 0 64 64" fill="none" xmlns="http://www.w3.org/2000/svg">
<g clip-path="url(#clip0_23_39)">
<path d="M27.2715 22.5005H13.1795C10.7079 22.5005 8.33748 23.4823 6.58977 25.23C4.84205 26.9777 3.8602 29.3482 3.8602 31.8198C3.8602 34.2914 4.84205 36.6618 6.58977 38.4096C8.33748 40.1573 10.7079 41.1391 13.1795 41.1391L50.4585 41.1375C52.9301 41.1375 55.3005 40.1557 57.0482 38.408C57.9136 37.5426 58.6001 36.5152 59.0684 35.3846C59.5368 34.2539 59.7778 33.042 59.7778 31.8182C59.7778 30.5944 59.5368 29.3825 59.0684 28.2518C58.6001 27.1212 57.9136 26.0938 57.0482 25.2284C56.1829 24.3631 55.1555 23.6766 54.0248 23.2083C52.8942 22.7399 51.6823 22.4989 50.4585 22.4989L36 22.4999" stroke="#F6B6A9" stroke-width="3.5" stroke-linecap="round"/>
<path d="M41.1375 41.1392L41.1375 50.4585C41.1378 51.8726 40.8163 53.2681 40.1973 54.5395C39.5783 55.8109 38.6781 56.9247 37.5649 57.7967C36.4517 58.6686 35.1546 59.2758 33.772 59.5722C32.3894 59.8685 30.9574 59.8464 29.5846 59.5074M22.4988 41.1392L22.4988 50.4585C22.4988 51.483 22.6659 52.471 22.9713 53.3937M22.4988 22.5005L22.4988 13.1811C22.4988 11.9573 22.7399 10.7455 23.2082 9.61479C23.6766 8.48412 24.363 7.45676 25.2284 6.59138C26.0938 5.726 27.1211 5.03954 28.2518 4.5712C29.3825 4.10286 30.5943 3.86181 31.8182 3.86181C33.042 3.86181 34.2539 4.10286 35.3845 4.5712C36.5152 5.03954 37.5426 5.726 38.4079 6.59138C39.2733 7.45676 39.9598 8.48412 40.4281 9.61479C40.8965 10.7455 41.1375 11.9573 41.1375 13.1812L41.1359 22.5021" stroke="#F6B6A9" stroke-width="3.5" stroke-linecap="round"/>
<path d="M14.486 35.2859C14.4865 35.5289 14.5841 35.7495 14.7437 35.909C14.8256 35.9909 14.923 36.0557 15.0299 36.1C15.1369 36.1442 15.2515 36.1669 15.3671 36.1668C15.853 36.1677 16.2457 35.775 16.2449 35.289C16.2441 34.803 15.85 34.4089 15.3639 34.4079C14.8778 34.4071 14.4852 34.7997 14.486 35.2859Z" fill="#F6B6A9"/>
<path d="M14.4783 31.8667C14.4788 32.1097 14.578 32.3289 14.7376 32.4884C14.8971 32.648 15.1179 32.7489 15.3609 32.7493C15.847 32.7501 16.2412 32.356 16.2404 31.8699C16.2395 31.3838 15.8439 30.9882 15.3578 30.9873C14.8716 30.9864 14.4775 31.3806 14.4783 31.8667Z" fill="#F6B6A9"/>
<path d="M18.007 35.2923C18.0074 35.5353 18.1051 35.756 18.2647 35.9155C18.3466 35.9973 18.4439 36.0622 18.5509 36.1064C18.6578 36.1506 18.7724 36.1734 18.888 36.1732C19.374 36.1742 19.7667 35.7815 19.7658 35.2954C19.765 34.8093 19.3709 34.4152 18.8848 34.4143C18.3988 34.4134 18.0061 34.8061 18.007 35.2923Z" fill="#F6B6A9"/>
<path d="M17.9992 31.873C17.9997 32.1162 18.0989 32.3352 18.2585 32.4948C18.4182 32.6545 18.6388 32.7552 18.8818 32.7557C19.3679 32.7565 19.7621 32.3623 19.7612 31.8762C19.7603 31.3901 19.3647 30.9945 18.8786 30.9936C18.3926 30.9928 17.9984 31.387 17.9992 31.873Z" fill="#F6B6A9"/>
<path d="M14.4734 28.1941C14.4738 28.4371 14.5715 28.6578 14.731 28.8173C14.8129 28.8992 14.9102 28.964 15.0172 29.0083C15.1241 29.0525 15.2387 29.0752 15.3543 29.075C15.8403 29.076 16.2331 28.6833 16.2321 28.1972C16.2313 27.7111 15.8372 27.317 15.3512 27.3163C14.8651 27.3152 14.4724 27.708 14.4734 28.1941Z" fill="#F6B6A9"/>
<path d="M21.6781 35.2989C21.6785 35.5419 21.7763 35.7626 21.9358 35.9221C22.0179 36.0042 22.1154 36.0693 22.2226 36.1138C22.3298 36.1583 22.4447 36.1813 22.5606 36.1814C23.0466 36.1823 23.4394 35.7896 23.4384 35.3035C23.4377 34.8175 23.042 34.4218 22.5559 34.421C22.0699 34.42 21.6771 34.8127 21.6781 35.2989Z" fill="#F6B6A9"/>
<path d="M21.6719 31.8781C21.6724 32.1211 21.7717 32.3434 21.9312 32.5029C22.0132 32.5847 22.1105 32.6496 22.2174 32.6938C22.3243 32.7381 22.4389 32.7608 22.5545 32.7607C23.0405 32.7616 23.4332 32.3689 23.4323 31.8828C23.4314 31.3967 23.0358 31.0011 22.5497 31.0002C22.0637 30.9993 21.671 31.392 21.6719 31.8781Z" fill="#F6B6A9"/>
<path d="M17.9942 28.2004C17.9947 28.4434 18.0924 28.6641 18.2519 28.8236C18.3339 28.9054 18.4312 28.9704 18.5381 29.0146C18.6451 29.0589 18.7597 29.0816 18.8753 29.0815C19.3613 29.0824 19.754 28.6897 19.7531 28.2036C19.7523 27.7176 19.3582 27.3235 18.8721 27.3226C18.386 27.3216 17.9933 27.7143 17.9942 28.2004Z" fill="#F6B6A9"/>
<path d="M21.6653 28.2071C21.6658 28.4501 21.7635 28.6708 21.923 28.8303C22.0052 28.9124 22.1026 28.9776 22.2098 29.0221C22.317 29.0666 22.4319 29.0896 22.5478 29.0897C23.034 29.0906 23.4266 28.698 23.4258 28.2118C23.4248 27.7258 23.0292 27.3302 22.5432 27.3292C22.0571 27.3283 21.6645 27.721 21.6653 28.2071Z" fill="#F6B6A9"/>
<path d="M40.7331 35.3349C40.7334 35.578 40.8328 35.7969 40.9924 35.9565C41.152 36.1161 41.371 36.2155 41.6141 36.2159C42.1002 36.2167 42.4944 35.8226 42.4935 35.3365C42.4926 34.8505 42.0986 34.4564 41.6125 34.4554C41.1264 34.4546 40.7321 34.8488 40.7331 35.3349Z" fill="#F6B6A9"/>
<path d="M40.7269 31.9142C40.7273 32.1572 40.8267 32.3763 40.9862 32.5359C41.1457 32.6954 41.3648 32.7947 41.6078 32.7951C42.094 32.796 42.4882 32.4019 42.4873 31.9157C42.4864 31.4297 42.0923 31.0356 41.6064 31.0348C41.1202 31.0339 40.726 31.428 40.7269 31.9142Z" fill="#F6B6A9"/>
<path d="M44.2539 35.3412C44.2544 35.5843 44.3536 35.8033 44.5133 35.963C44.5948 36.045 44.6917 36.1101 44.7984 36.1546C44.9051 36.1991 45.0195 36.2221 45.1349 36.2223C45.621 36.223 46.0151 35.8289 46.0144 35.3428C46.0135 34.8568 45.6194 34.4627 45.1333 34.4618C44.6472 34.461 44.2531 34.8551 44.2539 35.3412Z" fill="#F6B6A9"/>
<path d="M44.2478 31.9205C44.2483 32.1635 44.3475 32.3827 44.507 32.5422C44.6667 32.7018 44.8858 32.8011 45.1289 32.8016C45.615 32.8024 46.0091 32.4082 46.0083 31.9221C46.0075 31.4361 45.6134 31.042 45.1273 31.0411C44.6411 31.0402 44.247 31.4344 44.2478 31.9205Z" fill="#F6B6A9"/>
<path d="M40.7204 28.2431C40.7209 28.4861 40.8201 28.7053 40.9797 28.8649C41.0612 28.9469 41.1582 29.012 41.2649 29.0565C41.3716 29.101 41.4859 29.124 41.6014 29.1241C42.0875 29.125 42.4817 28.7308 42.4808 28.2447C42.4799 27.7586 42.0859 27.3645 41.5998 27.3637C41.1137 27.3628 40.7195 27.757 40.7204 28.2431Z" fill="#F6B6A9"/>
<path d="M47.9251 35.3478C47.9256 35.5909 48.0248 35.8101 48.1844 35.9696C48.2659 36.0516 48.3629 36.1168 48.4696 36.1613C48.5763 36.2058 48.6907 36.2287 48.8061 36.2289C49.2922 36.2298 49.6864 35.8356 49.6855 35.3495C49.6847 34.8634 49.2906 34.4693 48.8045 34.4684C48.3184 34.4676 47.9242 34.8618 47.9251 35.3478Z" fill="#F6B6A9"/>
<path d="M47.919 31.9271C47.9194 32.1702 48.0187 32.3893 48.1783 32.5488C48.2598 32.6308 48.3567 32.696 48.4634 32.7405C48.5701 32.785 48.6845 32.808 48.7999 32.8082C49.286 32.809 49.6802 32.4147 49.6794 31.9288C49.6785 31.4426 49.2845 31.0486 48.7984 31.0478C48.3123 31.0468 47.9181 31.4411 47.919 31.9271Z" fill="#F6B6A9"/>
<path d="M44.2413 28.2495C44.2417 28.4925 44.341 28.7116 44.5006 28.8711C44.5821 28.9531 44.679 29.0183 44.7857 29.0628C44.8924 29.1073 45.0067 29.1303 45.1222 29.1304C45.6083 29.1313 46.0026 28.7371 46.0016 28.251C46.0008 27.7649 45.6067 27.3709 45.1207 27.3701C44.6346 27.3691 44.2403 27.7633 44.2413 28.2495Z" fill="#F6B6A9"/>
<path d="M47.9139 28.2545C47.9144 28.4975 48.0121 28.7182 48.1716 28.8777C48.3313 29.0373 48.5503 29.1367 48.7934 29.1371C49.2795 29.1379 49.6737 28.7438 49.6729 28.2577C49.672 27.7717 49.2779 27.3776 48.7918 27.3766C48.3057 27.3757 47.9131 27.7684 47.9139 28.2545Z" fill="#F6B6A9"/>
<mask id="path-4-inside-1_23_39" fill="white">
<path d="M29.7337 35.6456L29.7353 36.6094L35.1235 36.6183L35.1219 35.6545L29.7337 35.6456Z"/>
<path d="M27.6896 29.1843L27.6985 34.5727L28.6622 34.5742L28.6535 29.1859L27.6896 29.1843Z"/>
<path d="M29.7186 27.1554L29.7201 28.1192L35.1096 28.1268L35.1092 27.1642L29.7186 27.1554Z"/>
<path d="M36.1811 29.1983L36.1899 34.5865L37.1524 34.5892L37.1448 29.2L36.1811 29.1983Z"/>
</mask>
<path d="M29.7353 36.6094L28.7353 36.611L28.7369 37.6078L29.7336 37.6094L29.7353 36.6094ZM29.7337 35.6456L29.7353 34.6456L28.732 34.6439L28.7337 35.6472L29.7337 35.6456ZM35.1219 35.6545L36.1219 35.6528L36.1203 34.6561L35.1236 34.6545L35.1219 35.6545ZM35.1235 36.6183L35.1219 37.6183L36.1252 37.62L36.1235 36.6167L35.1235 36.6183ZM27.6985 34.5727L26.6985 34.5743L26.7002 35.5711L27.697 35.5727L27.6985 34.5727ZM27.6896 29.1843L27.6913 28.1843L26.688 28.1827L26.6896 29.186L27.6896 29.1843ZM28.6535 29.1859L29.6535 29.1843L29.6519 28.1876L28.6551 28.1859L28.6535 29.1859ZM28.6622 34.5742L28.6607 35.5742L29.6639 35.5758L29.6622 34.5726L28.6622 34.5742ZM29.7201 28.1192L28.7202 28.1208L28.7218 29.1178L29.7187 29.1192L29.7201 28.1192ZM29.7186 27.1554L29.7202 26.1554L28.7169 26.1537L28.7186 27.157L29.7186 27.1554ZM35.1092 27.1642L36.1092 27.1639L36.1089 26.1659L35.1109 26.1643L35.1092 27.1642ZM35.1096 28.1268L35.1082 29.1268L36.1099 29.1283L36.1096 28.1265L35.1096 28.1268ZM36.1899 34.5865L35.1899 34.5882L35.1915 35.5837L36.1871 35.5865L36.1899 34.5865ZM36.1811 29.1983L36.1829 28.1983L35.1795 28.1965L35.1811 29.1999L36.1811 29.1983ZM37.1448 29.2L38.1448 29.1986L38.1434 28.2017L37.1466 28.2L37.1448 29.2ZM37.1524 34.5892L37.1496 35.5892L38.1538 35.592L38.1524 34.5878L37.1524 34.5892ZM29.7353 36.6094L30.7353 36.6078L30.7337 35.6439L29.7337 35.6456L28.7337 35.6472L28.7353 36.611L29.7353 36.6094ZM29.7337 35.6456L29.732 36.6456L35.1203 36.6545L35.1219 35.6545L35.1236 34.6545L29.7353 34.6456L29.7337 35.6456ZM35.1219 35.6545L34.1219 35.6561L34.1235 36.6199L35.1235 36.6183L36.1235 36.6167L36.1219 35.6528L35.1219 35.6545ZM35.1235 36.6183L35.1252 35.6183L29.7369 35.6094L29.7353 36.6094L29.7336 37.6094L35.1219 37.6183L35.1235 36.6183ZM27.6985 34.5727L28.6985 34.571L28.6896 29.1827L27.6896 29.1843L26.6896 29.186L26.6985 34.5743L27.6985 34.5727ZM27.6896 29.1843L27.688 30.1843L28.6518 30.1859L28.6535 29.1859L28.6551 28.1859L27.6913 28.1843L27.6896 29.1843ZM28.6535 29.1859L27.6535 29.1875L27.6622 34.5758L28.6622 34.5742L29.6622 34.5726L29.6535 29.1843L28.6535 29.1859ZM28.6622 34.5742L28.6638 33.5742L27.7001 33.5727L27.6985 34.5727L27.697 35.5727L28.6607 35.5742L28.6622 34.5742ZM29.7201 28.1192L30.7201 28.1175L30.7186 27.1537L29.7186 27.1554L28.7186 27.157L28.7202 28.1208L29.7201 28.1192ZM29.7186 27.1554L29.7169 28.1553L35.1076 28.1642L35.1092 27.1642L35.1109 26.1643L29.7202 26.1554L29.7186 27.1554ZM35.1092 27.1642L34.1092 27.1646L34.1096 28.1272L35.1096 28.1268L36.1096 28.1265L36.1092 27.1639L35.1092 27.1642ZM35.1096 28.1268L35.111 27.1268L29.7216 27.1192L29.7201 28.1192L29.7187 29.1192L35.1082 29.1268L35.1096 28.1268ZM36.1899 34.5865L37.1899 34.5849L37.1811 29.1967L36.1811 29.1983L35.1811 29.1999L35.1899 34.5882L36.1899 34.5865ZM36.1811 29.1983L36.1794 30.1983L37.1431 30.2L37.1448 29.2L37.1466 28.2L36.1829 28.1983L36.1811 29.1983ZM37.1448 29.2L36.1448 29.2014L36.1524 34.5906L37.1524 34.5892L38.1524 34.5878L38.1448 29.1986L37.1448 29.2ZM37.1524 34.5892L37.1552 33.5892L36.1927 33.5865L36.1899 34.5865L36.1871 35.5865L37.1496 35.5892L37.1524 34.5892Z" fill="#F6B6A9" mask="url(#path-4-inside-1_23_39)"/>
</g>
<defs>
<clipPath id="clip0_23_39">
<rect width="64" height="64" fill="white"/>
</clipPath>
</defs>
</svg>
