<svg width="38" height="38" viewBox="0 0 38 38" fill="none" xmlns="http://www.w3.org/2000/svg">
<g clip-path="url(#clip0_51_782)">
<g clip-path="url(#clip1_51_782)">
<path d="M3.25762 19.6109C3.29776 21.7188 4.15852 23.6835 5.67888 25.145C7.19923 26.6064 9.1963 27.3859 11.3027 27.3443L19.4593 27.1832L19.4922 27.1826L19.5385 27.1802L19.5474 27.18L20.6019 27.1472C21.0692 27.1216 21.4164 26.9219 21.6698 26.6584L27.7648 26.538C29.7428 26.5019 31.589 25.6943 32.9611 24.2669C34.3332 22.8394 35.0673 20.9628 35.0297 18.9834C34.9921 17.004 34.183 15.1563 32.7556 13.7842C31.3281 12.4121 29.4515 11.678 27.4706 11.7171L21.2471 11.84C20.9759 11.5794 20.6119 11.3848 20.1247 11.3855L19.3152 11.4104C19.2853 11.408 19.2567 11.4011 19.2254 11.4032L10.991 11.5659C6.63931 11.6503 3.17018 15.2592 3.25762 19.6109Z" fill="#333F48"/>
<path d="M33.1191 19.0196C33.1481 20.4896 32.6032 21.8828 31.5855 22.9415C30.5663 24.0018 29.1972 24.5998 27.7272 24.6288L20.5744 24.7701C20.3355 24.3997 19.3984 22.7339 19.3304 19.292C19.2608 15.8396 20.1358 14.1396 20.3556 13.7676L27.5084 13.6263C28.9784 13.5973 30.3701 14.1437 31.4288 15.1614C32.4876 16.1792 33.09 17.5496 33.1191 19.0196ZM5.96926 21.3059C5.99966 21.3322 6.03007 21.3585 6.05281 21.3745C6.25606 21.5259 6.47383 21.6561 6.69594 21.7787C6.82736 21.8494 6.9573 21.9215 7.09153 21.9831C8.1532 22.4673 9.33482 22.6681 10.4971 22.6452L16.7774 22.5211L17.0567 22.5141C17.4764 24.0138 17.9959 24.6656 17.9959 24.6656L10.5384 24.8129C10.2545 24.8185 9.97615 24.7971 9.69746 24.7607C8.63361 24.6203 7.62062 24.18 6.78805 23.4911C6.38845 23.1597 6.0342 22.7782 5.73143 22.3552C5.57159 22.1312 4.9118 21.2625 5.25143 20.9793C5.44556 20.8201 5.77157 21.1335 5.96926 21.3059Z" fill="white"/>
<path d="M21.4071 16.8448L26.8807 16.7367C27.8488 16.7176 28.8369 16.8849 29.7207 17.2889C30.0268 17.4278 30.3171 17.5954 30.587 17.7964C30.7281 17.9027 31.0674 18.2815 31.2556 18.1254C31.5393 17.8881 30.9885 17.1652 30.8548 16.9781C30.6028 16.6274 30.3066 16.3074 29.9738 16.0315C29.1002 15.306 27.9819 14.9052 26.8435 14.9277L21.7284 15.0287C21.7314 15.0256 21.3629 15.97 21.4071 16.8448Z" fill="#333F48"/>
</g>
</g>
<defs>
<clipPath id="clip0_51_782">
<rect width="38" height="38" fill="white"/>
</clipPath>
<clipPath id="clip1_51_782">
<rect width="38" height="38" fill="white"/>
</clipPath>
</defs>
</svg>
