<svg width="38" height="38" viewBox="0 0 38 38" fill="none" xmlns="http://www.w3.org/2000/svg">
<g clip-path="url(#clip0_51_792)">
<path d="M1.97948 14.2825C1.24899 16.204 1.31298 18.2944 2.15672 20.1696C3.00046 22.0447 4.52353 23.4764 6.44419 24.205L13.8817 27.0264L13.9116 27.0378L13.9544 27.0524L13.9625 27.0555L14.9284 27.4094C15.3604 27.5562 15.7472 27.5019 16.0722 27.3557C13.5384 20.1221 18.4247 15.2621 21.0803 13.7966C20.9298 13.4622 20.6713 13.1537 20.2303 12.9771L19.489 12.7052C19.4627 12.6921 19.4394 12.6755 19.4103 12.666L11.902 9.81774C7.93453 8.31111 3.48339 10.3139 1.97948 14.2825Z" fill="#F6B6A9"/>
<path d="M3.81576 16.8022C3.8337 16.8371 3.85164 16.8719 3.86639 16.8947C3.99518 17.1056 4.14482 17.3026 4.30114 17.4943C4.39433 17.606 4.48564 17.7186 4.58465 17.8231C5.36896 18.6473 6.36484 19.2589 7.42461 19.6609L13.1512 21.8333L13.4064 21.9285C13.2406 23.4378 13.4734 24.2165 13.4734 24.2165L6.67346 21.6369C6.41464 21.5387 6.17058 21.4181 5.93169 21.2838C5.02035 20.7698 4.26413 20.003 3.76156 19.0769C3.52061 18.6318 3.33894 18.1577 3.2189 17.665C3.15577 17.4042 2.87492 16.3783 3.28518 16.2457C3.51873 16.1722 3.69965 16.5743 3.81576 16.8022Z" fill="white"/>
<path d="M26.0207 27.7425L31.7018 25.9938C33.5462 25.4291 35.06 24.1765 35.9631 22.4702C36.8661 20.7639 37.0506 18.8078 36.484 16.9624C35.9175 15.117 34.6632 13.6023 32.9568 12.6992C31.2505 11.7961 29.2944 11.6117 27.4481 12.1801L21.6473 13.9657C20.4512 16.7531 19.5791 23.5893 26.0207 27.7425Z" fill="#F6B6A9"/>
<path d="M34.42 21.857C35.0898 20.5914 35.2266 19.1393 34.8049 17.7691C34.3831 16.399 33.4505 15.276 32.1849 14.6062C30.9193 13.9363 29.4681 13.7977 28.098 14.2195L21.1598 16.1577C20.6722 16.6453 20.6724 20.5454 21.6475 22.4955C22.135 23.9581 23.5974 25.9081 24.5725 26.3957L31.2561 24.4742C32.6263 24.0524 33.7491 23.1244 34.42 21.857Z" fill="white"/>
<path d="M22.7282 19.5679L27.83 17.9974C28.7323 17.7197 29.7034 17.6113 30.6403 17.7528C30.9645 17.8008 31.2816 17.8801 31.5886 17.9959C31.7493 18.0577 32.169 18.3218 32.3036 18.1249C32.5059 17.8264 31.7955 17.2966 31.62 17.157C31.2896 16.8959 30.926 16.6755 30.5401 16.5062C29.5264 16.0606 28.3705 15.985 27.3095 16.3117L22.5419 17.7792C22.5438 17.7756 22.4519 18.7597 22.7282 19.5679Z" fill="#F6B6A9"/>
</g>
<defs>
<clipPath id="clip0_51_792">
<rect width="38" height="38" fill="white"/>
</clipPath>
</defs>
</svg>
