<svg width="28" height="26" viewBox="0 0 28 26" fill="none" xmlns="http://www.w3.org/2000/svg">
<g clip-path="url(#clip0_23_60)">
<path d="M12.6803 0.546513C13.0304 0.196581 13.505 0 14 0C14.495 0 14.9696 0.196581 15.3197 0.546513L19.5998 4.82661V2.41311C19.5998 2.16558 19.6981 1.92819 19.8731 1.75317C20.0482 1.57814 20.2856 1.47981 20.5331 1.47981H22.3997C22.6472 1.47981 22.8846 1.57814 23.0596 1.75317C23.2347 1.92819 23.333 2.16558 23.333 2.41311V8.55979L27.727 12.9519C27.902 13.1271 28.0002 13.3647 28 13.6124C27.9998 13.86 27.9013 14.0975 27.726 14.2725C27.5508 14.4475 27.3132 14.5457 27.0655 14.5455C26.8179 14.5454 26.5804 14.4468 26.4054 14.2716L14 1.86619L1.59459 14.2716C1.41959 14.4468 1.18214 14.5454 0.934478 14.5455C0.686814 14.5457 0.449224 14.4475 0.273976 14.2725C0.0987272 14.0975 0.000175261 13.86 2.33531e-07 13.6124C-0.000174794 13.3647 0.0980415 13.1271 0.273043 12.9519L12.6803 0.546513Z" fill="#F6B6A9"/>
<path d="M24.8891 15.0053L14.0002 4.11642L3.11133 15.0053V22.6402C3.11133 23.3622 3.39813 24.0546 3.90865 24.5651C4.41916 25.0756 5.11157 25.3624 5.83355 25.3624H22.1669C22.8889 25.3624 23.5813 25.0756 24.0918 24.5651C24.6023 24.0546 24.8891 23.3622 24.8891 22.6402V15.0053ZM14.0002 13.5335C17.0201 10.4973 24.5715 15.8092 14.0002 22.6402C3.42892 15.8092 10.9804 10.4973 14.0002 13.5335Z" fill="#F6B6A9"/>
</g>
<defs>
<clipPath id="clip0_23_60">
<rect width="28" height="26" fill="white"/>
</clipPath>
</defs>
</svg>
