<svg width="28" height="26" viewBox="0 0 28 26" fill="none" xmlns="http://www.w3.org/2000/svg">
<g clip-path="url(#clip0_23_66)">
<path d="M14.0002 10.681C17.1062 7.5866 24.8731 13.0004 14.0002 19.9623C3.12726 13.0004 10.8942 7.5866 14.0002 10.681Z" fill="#333F48"/>
<path d="M15.3197 0.541537C14.9696 0.194791 14.495 0 14 0C13.505 0 13.0304 0.194791 12.6803 0.541537L0.273043 12.834C0.0980415 13.0076 -0.000174794 13.243 2.33531e-07 13.4885C0.000175261 13.7339 0.0987272 13.9692 0.273976 14.1426C0.449224 14.316 0.686814 14.4133 0.934478 14.4131C1.18214 14.4129 1.41959 14.3153 1.59459 14.1416L2.80042 12.9468V22.7367C2.80042 23.4725 3.0954 24.1782 3.62049 24.6985C4.14557 25.2188 4.85773 25.5111 5.60031 25.5111H22.3997C23.1423 25.5111 23.8544 25.2188 24.3795 24.6985C24.9046 24.1782 25.1996 23.4725 25.1996 22.7367V12.9468L26.4054 14.1416C26.5804 14.3153 26.8179 14.4129 27.0655 14.4131C27.3132 14.4133 27.5508 14.316 27.726 14.1426C27.9013 13.9692 27.9998 13.7339 28 13.4885C28.0002 13.243 27.902 13.0076 27.727 12.834L23.333 8.48186V2.39114C23.333 2.14586 23.2347 1.91064 23.0596 1.7372C22.8846 1.56377 22.6472 1.46634 22.3997 1.46634H20.5331C20.2856 1.46634 20.0482 1.56377 19.8731 1.7372C19.6981 1.91064 19.5998 2.14586 19.5998 2.39114V4.78267L15.3197 0.541537ZM23.333 11.0972V22.7367C23.333 22.982 23.2347 23.2172 23.0596 23.3906C22.8846 23.5641 22.6472 23.6615 22.3997 23.6615H5.60031C5.35279 23.6615 5.1154 23.5641 4.94037 23.3906C4.76534 23.2172 4.66701 22.982 4.66701 22.7367V11.0972L14 1.8492L23.333 11.0972Z" fill="#333F48"/>
</g>
<defs>
<clipPath id="clip0_23_66">
<rect width="28" height="26" fill="white"/>
</clipPath>
</defs>
</svg>
