<svg width="28" height="20" viewBox="0 0 28 20" fill="none" xmlns="http://www.w3.org/2000/svg">
<g clip-path="url(#clip0_23_111)">
<path d="M-0.209961 1.05259C-0.209961 0.773427 -0.099063 0.505697 0.0983363 0.308297C0.295736 0.110898 0.563466 0 0.842631 0H23.9997C24.2788 0 24.5465 0.110898 24.7439 0.308297C24.9413 0.505697 25.0522 0.773427 25.0522 1.05259C25.0522 1.33176 24.9413 1.59949 24.7439 1.79689C24.5465 1.99429 24.2788 2.10518 23.9997 2.10518H0.842631C0.563466 2.10518 0.295736 1.99429 0.0983363 1.79689C-0.099063 1.59949 -0.209961 1.33176 -0.209961 1.05259ZM0.842631 10.5259H9.26337C9.54253 10.5259 9.81026 10.415 10.0077 10.2176C10.2051 10.0202 10.316 9.75249 10.316 9.47333C10.316 9.19416 10.2051 8.92643 10.0077 8.72903C9.81026 8.53163 9.54253 8.42074 9.26337 8.42074H0.842631C0.563466 8.42074 0.295736 8.53163 0.0983363 8.72903C-0.099063 8.92643 -0.209961 9.19416 -0.209961 9.47333C-0.209961 9.75249 -0.099063 10.0202 0.0983363 10.2176C0.295736 10.415 0.563466 10.5259 0.842631 10.5259ZM11.3686 16.8415H0.842631C0.563466 16.8415 0.295736 16.9524 0.0983363 17.1498C-0.099063 17.3472 -0.209961 17.6149 -0.209961 17.8941C-0.209961 18.1732 -0.099063 18.441 0.0983363 18.6384C0.295736 18.8358 0.563466 18.9467 0.842631 18.9467H11.3686C11.6477 18.9467 11.9154 18.8358 12.1128 18.6384C12.3102 18.441 12.4211 18.1732 12.4211 17.8941C12.4211 17.6149 12.3102 17.3472 12.1128 17.1498C11.9154 16.9524 11.6477 16.8415 11.3686 16.8415ZM28.21 11.5785C28.21 16.3836 21.5945 19.7466 21.3129 19.8887C21.1667 19.9619 21.0054 20 20.8419 20C20.6784 20 20.5171 19.9619 20.3708 19.8887C20.0893 19.7466 13.4737 16.3836 13.4737 11.5785C13.4744 10.7236 13.7354 9.88913 14.2218 9.18611C14.7083 8.48309 15.3973 7.94482 16.1971 7.64289C16.9969 7.34095 17.8697 7.28966 18.6994 7.49582C19.5291 7.70199 20.2764 8.15584 20.8419 8.79704C21.4074 8.15584 22.1546 7.70199 22.9843 7.49582C23.814 7.28966 24.6868 7.34095 25.4866 7.64289C26.2865 7.94482 26.9754 8.48309 27.4619 9.18611C27.9484 9.88913 28.2093 10.7236 28.21 11.5785ZM26.1048 11.5785C26.1048 11.0202 25.883 10.4847 25.4882 10.0899C25.0934 9.69512 24.558 9.47333 23.9997 9.47333C23.4413 9.47333 22.9059 9.69512 22.5111 10.0899C22.1163 10.4847 21.8945 11.0202 21.8945 11.5785C21.8945 11.8577 21.7836 12.1254 21.5862 12.3228C21.3888 12.5202 21.121 12.6311 20.8419 12.6311C20.5627 12.6311 20.295 12.5202 20.0976 12.3228C19.9002 12.1254 19.7893 11.8577 19.7893 11.5785C19.7893 11.0202 19.5675 10.4847 19.1727 10.0899C18.7779 9.69512 18.2424 9.47333 17.6841 9.47333C17.1258 9.47333 16.5903 9.69512 16.1955 10.0899C15.8007 10.4847 15.5789 11.0202 15.5789 11.5785C15.5789 14.2337 19.0275 16.7283 20.8419 17.7533C22.6563 16.7296 26.1048 14.235 26.1048 11.5785Z" fill="#F6B6A9"/>
</g>
<defs>
<clipPath id="clip0_23_111">
<rect width="28" height="20" fill="white"/>
</clipPath>
</defs>
</svg>
