<svg width="33" height="28" viewBox="0 0 33 28" fill="none" xmlns="http://www.w3.org/2000/svg">
<g clip-path="url(#clip0_23_103)">
<path d="M32.8372 9.0438C32.8372 19.2545 17.6976 27.5194 17.0529 27.8607C16.8829 27.9522 16.693 28 16.5 28C16.3071 28 16.1171 27.9522 15.9472 27.8607C15.4585 27.5982 6.67729 22.8006 2.42817 16.0615C2.37336 15.9732 2.34311 15.8719 2.34056 15.768C2.33801 15.6642 2.36324 15.5615 2.41365 15.4706C2.46406 15.3798 2.53782 15.304 2.62731 15.2512C2.71679 15.1984 2.81875 15.1705 2.92266 15.1702H8.33143C8.5236 15.1704 8.71283 15.123 8.8823 15.0324C9.05178 14.9419 9.19626 14.8108 9.30291 14.651L10.6653 12.6088L14.3616 18.1518C14.5032 18.3642 14.7106 18.5243 14.952 18.6076C15.1933 18.6908 15.4553 18.6926 15.6978 18.6127C15.955 18.5256 16.1751 18.3539 16.3221 18.1255L18.2913 15.1702H21.1678C21.3278 15.1706 21.4861 15.1381 21.633 15.0746C21.7798 15.0112 21.9121 14.9183 22.0215 14.8016C22.131 14.6849 22.2152 14.547 22.2691 14.3963C22.323 14.2457 22.3453 14.0856 22.3347 13.926C22.3086 13.626 22.1701 13.3471 21.9469 13.145C21.7237 12.9429 21.4324 12.8327 21.1313 12.8364H17.667C17.4748 12.8362 17.2856 12.8836 17.1161 12.9742C16.9466 13.0648 16.8021 13.1958 16.6955 13.3556L15.3331 15.3978L11.6368 9.85482C11.4951 9.64211 11.2875 9.4818 11.0458 9.39853C10.8042 9.31525 10.5419 9.31362 10.2992 9.39388C10.0426 9.48148 9.82315 9.65316 9.67633 9.88108L7.70712 12.8364H1.26123C1.13653 12.8367 1.015 12.7971 0.914456 12.7233C0.813914 12.6496 0.73965 12.5455 0.702552 12.4265C0.350756 11.3331 0.168736 10.1923 0.162842 9.0438C0.165544 6.64606 1.11924 4.34731 2.81469 2.65185C4.51015 0.956397 6.80891 0.00270255 9.20664 0C12.2188 0 14.8561 1.29531 16.5 3.48478C18.144 1.29531 20.7812 0 23.7934 0C26.1911 0.00270255 28.4899 0.956397 30.1854 2.65185C31.8808 4.34731 32.8345 6.64606 32.8372 9.0438Z" fill="#F6B6A9"/>
</g>
<defs>
<clipPath id="clip0_23_103">
<rect width="33" height="28" fill="white"/>
</clipPath>
</defs>
</svg>
