<svg width="33" height="28" viewBox="0 0 33 28" fill="none" xmlns="http://www.w3.org/2000/svg">
<g clip-path="url(#clip0_23_99)">
<path d="M8.33315 15.1671H2.49966C2.19023 15.1671 1.89348 15.0442 1.67468 14.8254C1.45588 14.6066 1.33296 14.3098 1.33296 14.0004C1.33296 13.691 1.45588 13.3942 1.67468 13.1754C1.89348 12.9566 2.19023 12.8337 2.49966 12.8337H7.70897L9.69527 9.85277C9.80177 9.69274 9.94617 9.5615 10.1156 9.47073C10.2851 9.37995 10.4743 9.33245 10.6665 9.33245C10.8588 9.33245 11.048 9.37995 11.2175 9.47073C11.3869 9.5615 11.5313 9.69274 11.6378 9.85277L15.3333 15.3946L16.6955 13.3529C16.8021 13.193 16.9465 13.062 17.116 12.9715C17.2854 12.8809 17.4746 12.8336 17.6667 12.8337H21.1668C21.4763 12.8337 21.773 12.9566 21.9918 13.1754C22.2106 13.3942 22.3335 13.691 22.3335 14.0004C22.3335 14.3098 22.2106 14.6066 21.9918 14.8254C21.773 15.0442 21.4763 15.1671 21.1668 15.1671H18.2909L16.3046 18.148C16.1981 18.308 16.0537 18.4393 15.8843 18.53C15.7148 18.6208 15.5256 18.6683 15.3333 18.6683C15.1411 18.6683 14.9519 18.6208 14.7824 18.53C14.613 18.4393 14.4686 18.308 14.3621 18.148L10.6665 12.6033L9.30443 14.645C9.19813 14.8053 9.05383 14.9369 8.88437 15.028C8.7149 15.1191 8.52555 15.1669 8.33315 15.1671ZM23.7919 0C20.7804 0 18.1436 1.29504 16.5 3.48405C14.8565 1.29504 12.2197 0 9.20818 0C6.81094 0.00270198 4.51266 0.956198 2.81756 2.6513C1.12246 4.3464 0.168962 6.64468 0.16626 9.04191V9.37005C0.175929 9.67948 0.308123 9.97239 0.533759 10.1844C0.759395 10.3963 1.05999 10.51 1.36942 10.5003C1.67885 10.4906 1.97176 10.3584 2.18372 10.1328C2.39568 9.90715 2.50933 9.60656 2.49966 9.29713V9.04191C2.50197 7.26342 3.2095 5.55842 4.46709 4.30083C5.72468 3.04324 7.42968 2.33571 9.20818 2.3334C12.0447 2.3334 14.4262 3.84427 15.4208 6.27101C15.5087 6.48499 15.6583 6.66801 15.8504 6.79682C16.0426 6.92563 16.2687 6.9944 16.5 6.9944C16.7314 6.9944 16.9575 6.92563 17.1497 6.79682C17.3418 6.66801 17.4913 6.48499 17.5792 6.27101C18.5739 3.8399 20.9554 2.3334 23.7919 2.3334C25.5704 2.33571 27.2754 3.04324 28.533 4.30083C29.7906 5.55842 30.4981 7.26342 30.5004 9.04191C30.5004 16.8603 19.1601 23.9392 16.5 25.4924C14.9206 24.5721 10.283 21.7006 6.77561 17.8782C6.672 17.7652 6.54715 17.6737 6.40818 17.609C6.26922 17.5442 6.11886 17.5075 5.9657 17.5009C5.81254 17.4942 5.65957 17.5178 5.51552 17.5703C5.37148 17.6228 5.23918 17.7031 5.12619 17.8067C5.01319 17.9104 4.92171 18.0352 4.85697 18.1742C4.79223 18.3131 4.75549 18.4635 4.74885 18.6167C4.74222 18.7698 4.76581 18.9228 4.8183 19.0668C4.87078 19.2109 4.95112 19.3432 5.05473 19.4562C9.60048 24.4146 15.6906 27.7222 15.9473 27.8608C16.1172 27.9522 16.3071 28 16.5 28C16.693 28 16.8829 27.9522 17.0528 27.8608C17.6974 27.5137 32.8338 19.2505 32.8338 9.04191C32.8311 6.64468 31.8776 4.3464 30.1825 2.6513C28.4874 0.956198 26.1891 0.00270198 23.7919 0Z" fill="#F6B6A9"/>
</g>
<defs>
<clipPath id="clip0_23_99">
<rect width="33" height="28" fill="white"/>
</clipPath>
</defs>
</svg>
