<svg width="383" height="222" viewBox="0 0 383 222" fill="none" xmlns="http://www.w3.org/2000/svg">
<path fill-rule="evenodd" clip-rule="evenodd" d="M187.66 79.2084C198.921 90.4636 198.921 108.885 187.66 120.141L138.983 168.818L98.056 127.885L146.728 79.2084C157.988 67.9532 176.405 67.9532 187.66 79.2084Z" fill="#F6B6A9"/>
<path fill-rule="evenodd" clip-rule="evenodd" d="M8.44141 79.2084C19.7018 67.9532 38.1185 67.9532 49.3789 79.2084L98.056 127.885L57.1185 168.818L8.44141 120.141C-2.8138 108.885 -2.8138 90.4636 8.44141 79.2084Z" fill="#393F46"/>
<path fill-rule="evenodd" clip-rule="evenodd" d="M61.5455 32.6823C61.5455 32.6823 76.108 38.8281 87.2487 51.6666C81.5455 66.1354 80.3372 84.0312 88.0976 105.781C41.5039 85.5573 61.5455 32.6823 61.5455 32.6823Z" fill="#F6B6A9"/>
<mask id="mask0_56_236" style="mask-type:luminance" maskUnits="userSpaceOnUse" x="85" y="0" width="67" height="109">
<path d="M85.082 0H151.749V108.693H85.082V0Z" fill="white"/>
</mask>
<g mask="url(#mask0_56_236)">
<path fill-rule="evenodd" clip-rule="evenodd" d="M147.129 0.00524902C147.129 0.00524902 61.8685 29.5313 92.2226 107.984C173.493 86.2917 147.129 0.00524902 147.129 0.00524902Z" fill="#393F46"/>
</g>
<path fill-rule="evenodd" clip-rule="evenodd" d="M90.9935 146.693C93.5872 146.693 95.6862 148.797 95.6862 151.391C95.6862 153.979 93.5872 156.083 90.9935 156.083C88.3997 156.083 86.3008 153.979 86.3008 151.391C86.3008 148.797 88.4049 146.693 90.9935 146.693Z" fill="#393F46"/>
<path fill-rule="evenodd" clip-rule="evenodd" d="M85.3789 157.661C89.9154 157.661 93.5977 161.344 93.5977 165.88C93.5977 170.417 89.9154 174.094 85.3789 174.094C80.8425 174.094 77.1654 170.417 77.1654 165.88C77.1654 161.339 80.8425 157.661 85.3789 157.661Z" fill="#393F46"/>
<mask id="mask1_56_236" style="mask-type:luminance" maskUnits="userSpaceOnUse" x="101" y="156" width="29" height="29">
<path d="M101.082 156.693H129.082V184.828H101.082V156.693Z" fill="white"/>
</mask>
<g mask="url(#mask1_56_236)">
<path fill-rule="evenodd" clip-rule="evenodd" d="M115.478 157.974C122.9 157.974 128.91 163.984 128.91 171.406C128.91 178.828 122.9 184.844 115.478 184.844C108.056 184.844 102.04 178.828 102.04 171.406C102.04 163.984 108.061 157.974 115.478 157.974Z" fill="#F6B6A9"/>
</g>
<path fill-rule="evenodd" clip-rule="evenodd" d="M103.91 140.24C107.259 140.24 109.983 142.958 109.983 146.313C109.983 149.661 107.259 152.38 103.91 152.38C100.561 152.38 97.8424 149.661 97.8424 146.313C97.8424 142.958 100.561 140.24 103.91 140.24Z" fill="#F6B6A9"/>
<path d="M3.41541 221.453V99.7969" stroke="#393F46" stroke-width="5.92398"/>
<path d="M8.14453 221.453V99.7969" stroke="#393F46" stroke-width="5.92398"/>
<path d="M12.8685 221.453V99.7969" stroke="#393F46" stroke-width="5.92398"/>
<path d="M17.5977 221.453V99.7969" stroke="#393F46" stroke-width="5.92398"/>
<path d="M22.3217 221.453V99.7969" stroke="#393F46" stroke-width="5.92398"/>
<path d="M27.0508 221.453V99.7969" stroke="#393F46" stroke-width="5.92398"/>
<path d="M169.176 221.453V99.7969" stroke="#F6B6A9" stroke-width="5.92398"/>
<path d="M173.9 221.453V99.7969" stroke="#F6B6A9" stroke-width="5.92398"/>
<path d="M178.629 221.453V99.7969" stroke="#F6B6A9" stroke-width="5.92398"/>
<path d="M183.353 221.453V99.7969" stroke="#F6B6A9" stroke-width="5.92398"/>
<path d="M188.082 221.453V99.7969" stroke="#F6B6A9" stroke-width="5.92398"/>
<path d="M192.811 221.453V99.7969" stroke="#F6B6A9" stroke-width="5.92398"/>
<path d="M207.957 209.861V162.298H218.04V209.861H207.957Z" fill="#F6B6A9"/>
<path d="M265.553 209.861H252.719L232.032 173.882H231.74C231.823 175.382 231.896 176.892 231.969 178.403C232.037 179.918 232.099 181.434 232.157 182.944C232.224 184.444 232.292 185.96 232.365 187.486V209.861H223.344V162.298H236.073L256.719 197.923H256.948C256.907 196.455 256.849 194.986 256.782 193.528C256.724 192.069 256.667 190.621 256.615 189.173C256.558 187.715 256.511 186.267 256.469 184.819V162.298H265.553V209.861Z" fill="#F6B6A9"/>
<path d="M310.29 185.632C310.29 190.981 309.259 195.455 307.206 199.048C305.165 202.632 302.196 205.335 298.311 207.153C294.436 208.96 289.769 209.861 284.311 209.861H270.831V162.298H285.769C290.753 162.298 295.081 163.189 298.748 164.965C302.415 166.731 305.253 169.34 307.269 172.798C309.279 176.257 310.29 180.538 310.29 185.632ZM299.831 185.882C299.831 182.371 299.311 179.481 298.269 177.215C297.238 174.955 295.717 173.278 293.706 172.194C291.706 171.111 289.232 170.569 286.29 170.569H280.915V201.528H285.248C290.175 201.528 293.837 200.215 296.227 197.59C298.628 194.965 299.831 191.064 299.831 185.882Z" fill="#F6B6A9"/>
<path d="M340.869 209.861H313.473V162.298H340.869V170.569H323.556V181.007H339.66V189.278H323.556V201.528H340.869V209.861Z" fill="#F6B6A9"/>
<path d="M357.988 162.298C362.29 162.298 365.848 162.819 368.655 163.861C371.473 164.903 373.561 166.481 374.926 168.59C376.285 170.689 376.967 173.34 376.967 176.548C376.967 178.715 376.556 180.611 375.738 182.236C374.915 183.861 373.832 185.246 372.488 186.382C371.139 187.507 369.686 188.423 368.134 189.132L382.113 209.861H370.926L359.571 191.611H354.196V209.861H344.113V162.298H357.988ZM357.259 170.569H354.196V183.403H357.467C360.801 183.403 363.186 182.851 364.634 181.736C366.077 180.627 366.801 178.981 366.801 176.798C366.801 174.548 366.019 172.955 364.467 172.007C362.91 171.048 360.509 170.569 357.259 170.569Z" fill="#F6B6A9"/>
<path d="M235.353 139.107H207.957V91.5447H235.353V99.8155H218.04V110.253H234.145V118.524H218.04V130.774H235.353V139.107Z" fill="#393F46"/>
<path d="M284.719 114.878C284.719 120.227 283.688 124.701 281.636 128.295C279.594 131.878 276.625 134.581 272.74 136.399C268.865 138.206 264.198 139.107 258.74 139.107H245.261V91.5447H260.198C265.182 91.5447 269.511 92.4353 273.177 94.2113C276.844 95.977 279.682 98.5863 281.698 102.045C283.709 105.503 284.719 109.784 284.719 114.878ZM274.261 115.128C274.261 111.618 273.74 108.727 272.698 106.461C271.667 104.201 270.146 102.524 268.136 101.441C266.136 100.357 263.662 99.8155 260.719 99.8155H255.344V130.774H259.677C264.604 130.774 268.266 129.461 270.656 126.836C273.057 124.211 274.261 120.31 274.261 115.128Z" fill="#393F46"/>
<mask id="mask2_56_236" style="mask-type:luminance" maskUnits="userSpaceOnUse" x="277" y="72" width="90" height="80">
<path d="M277.296 72.6927H366.415V151.359H277.296V72.6927Z" fill="white"/>
</mask>
<g mask="url(#mask2_56_236)">
<path fill-rule="evenodd" clip-rule="evenodd" d="M357.566 76C366.264 81.625 368.759 93.3386 363.129 102.036L337.15 142.104C331.525 150.802 319.811 153.292 311.134 147.667C309.025 146.302 307.296 144.594 305.947 142.646H296.504C294.879 142.646 293.551 141.318 293.551 139.693C293.551 138.063 294.879 136.74 296.504 136.74H313.967C314.165 136.74 314.348 136.76 314.53 136.797C316.155 136.797 317.483 135.474 317.483 133.844C317.483 132.219 316.155 130.891 314.53 130.891H280.249C278.644 130.891 277.296 129.563 277.296 127.938C277.296 126.313 278.624 124.984 280.249 124.984H336.671C338.296 124.984 339.624 123.656 339.624 122.031C339.624 120.401 338.296 119.078 336.671 119.078H309.285C307.655 119.078 306.332 117.75 306.332 116.125C306.332 114.495 307.655 113.172 309.285 113.172H327.728C329.358 113.172 330.681 111.844 330.681 110.214C330.681 108.589 329.358 107.26 327.728 107.26H309.785C308.16 107.26 306.832 105.938 306.832 104.307C306.832 102.682 308.16 101.354 309.785 101.354H318.728L331.525 81.5834C337.15 72.8646 348.863 70.375 357.566 76ZM292.264 113.151C290.639 113.151 289.311 114.474 289.311 116.104C289.311 117.729 290.639 119.057 292.264 119.057H299.056C300.665 119.057 302.009 117.708 302.009 116.104C302.009 114.495 300.686 113.151 299.056 113.151H292.264ZM327.025 100.01C331.546 99.3073 336.207 100.25 340.124 102.802C344.061 105.333 346.837 109.214 348.04 113.63L357.827 98.6042C361.566 92.8334 359.894 85.0417 354.108 81.2813C348.342 77.5469 340.546 79.2136 336.811 84.9792L327.025 100.01Z" fill="#393F46"/>
</g>
</svg>
