<svg width="24" height="22" viewBox="0 0 24 22" fill="none" xmlns="http://www.w3.org/2000/svg">
<g clip-path="url(#clip0_29_178)">
<path d="M20.3012 2.1051C17.3369 0.277275 14.7495 1.01285 13.1955 2.18621C12.5588 2.66733 12.2405 2.90845 12.0526 2.90845C11.8647 2.90845 11.5464 2.66733 10.9098 2.18621C9.35578 1.01285 6.76836 0.278386 3.80404 2.1051C-0.0853913 4.50293 -0.965183 12.4165 8.00736 19.0933C9.7161 20.3644 10.5705 21 12.0526 21C13.5348 21 14.3892 20.3644 16.0979 19.0933C25.0704 12.4165 24.1907 4.50516 20.3012 2.1051Z" stroke="#333F48" stroke-width="1.5" stroke-linecap="round" stroke-linejoin="round"/>
<path d="M7.10791 7.90788H9.99226M16.173 7.90788H16.9971M12.0525 6.78946V9.0263M14.1128 6.78946V9.0263M16.9971 14.6184H12.0525M7.93201 14.6184H7.10791M9.99226 13.5V15.7368" stroke="#333F48" stroke-width="1.5" stroke-linecap="round" stroke-linejoin="round"/>
</g>
<defs>
<clipPath id="clip0_29_178">
<rect width="24" height="22" fill="white"/>
</clipPath>
</defs>
</svg>
