<svg width="24" height="22" viewBox="0 0 24 22" fill="none" xmlns="http://www.w3.org/2000/svg">
<g clip-path="url(#clip0_29_164)">
<path d="M12 7.68331V14.3184M8.69999 11.0009H15.3M20.2093 2.14744C17.2591 0.328324 14.684 1.06039 13.1374 2.22817C12.5038 2.707 12.187 2.94697 12 2.94697C11.813 2.94697 11.4962 2.707 10.8626 2.22817C9.31599 1.06039 6.74089 0.32943 3.79068 2.14744C-0.0802228 4.53386 -0.955825 12.4097 7.97399 19.0547C9.6746 20.3198 10.5249 20.9524 12 20.9524C13.4751 20.9524 14.3254 20.3198 16.026 19.0547C24.9558 12.4097 24.0802 4.53607 20.2093 2.14744Z" stroke="#F6B6A9" stroke-width="1.5" stroke-linecap="round" stroke-linejoin="round"/>
</g>
<defs>
<clipPath id="clip0_29_164">
<rect width="24" height="22" fill="white"/>
</clipPath>
</defs>
</svg>
