<svg width="26" height="28" viewBox="0 0 26 28" fill="none" xmlns="http://www.w3.org/2000/svg">
<g clip-path="url(#clip0_23_133)">
<path d="M7.10353 23.9677C7.69505 26.1956 9.78477 27.8423 12.2697 27.8423C14.7559 27.8423 16.8431 26.1956 17.4359 23.9677" fill="#F6B6A9"/>
<path d="M19.5425 11.0676C19.6858 11.0676 19.8272 11.0342 19.9553 10.9701C20.0429 10.9259 20.8301 10.5259 21.8091 9.84002C21.6829 9.19189 21.4919 8.56682 21.243 7.97181C20.6274 8.44305 20.0203 8.82901 19.5425 9.09858C17.9524 8.2003 14.93 6.01398 14.93 3.68699C14.93 3.25524 15.0814 2.83909 15.3547 2.50947C14.7456 2.30648 14.1097 2.16195 13.4536 2.08256C13.2125 2.58061 13.0855 3.12882 13.0851 3.68699C13.0851 7.89818 18.8829 10.8456 19.1297 10.9701C19.2579 11.0342 19.3992 11.0676 19.5425 11.0676Z" fill="#333F48"/>
<path fill-rule="evenodd" clip-rule="evenodd" d="M26 3.68699C26 6.40325 23.5879 8.59371 21.8091 9.84002C21.6829 9.19189 21.4919 8.56682 21.243 7.97181C22.6761 6.87476 24.155 5.31558 24.155 3.68699C24.155 3.19766 23.9606 2.72838 23.6146 2.38238C23.2686 2.03638 22.7993 1.84199 22.31 1.84199C21.8207 1.84199 21.3514 2.03638 21.0054 2.38238C20.6594 2.72838 20.465 3.19766 20.465 3.68699C20.465 3.93165 20.3678 4.16629 20.1948 4.33929C20.0218 4.51229 19.7872 4.60948 19.5425 4.60948C19.2979 4.60948 19.0632 4.51229 18.8902 4.33929C18.7172 4.16629 18.62 3.93165 18.62 3.68699C18.62 3.19766 18.4256 2.72838 18.0796 2.38238C17.7336 2.03638 17.2644 1.84199 16.775 1.84199C16.2857 1.84199 15.8164 2.03638 15.4704 2.38238C15.4297 2.42309 15.3911 2.46551 15.3547 2.50947C14.7456 2.30648 14.1097 2.16195 13.4536 2.08256C13.5361 1.91205 13.632 1.74742 13.7407 1.59028C14.167 0.97415 14.7709 0.502409 15.4718 0.237791C16.1728 -0.0268277 16.9377 -0.0717835 17.6649 0.108901C18.392 0.289585 19.0469 0.687346 19.5425 1.24929C20.0381 0.687346 20.693 0.289585 21.4202 0.108901C22.1473 -0.0717835 22.9122 -0.0268277 23.6132 0.237791C24.3142 0.502409 24.918 0.97415 25.3444 1.59028C25.7707 2.20641 25.9994 2.93773 26 3.68699Z" fill="#333F48"/>
<path d="M0.038753 18.5044C-0.236346 20.3049 0.991912 21.5538 2.49527 22.1763C8.25942 24.5657 16.2799 24.5657 22.0441 22.1763C23.5474 21.5538 24.7757 20.3036 24.5006 18.5044C24.3664 17.6197 23.8056 16.8538 23.2699 16.1223C23.1356 15.9389 23.0024 15.757 22.8784 15.5765C22.0686 14.3831 21.9885 13.0825 21.9872 11.698C21.9874 11.0625 21.9261 10.4413 21.8091 9.84002C20.8301 10.5259 20.0429 10.9259 19.9553 10.9701C19.8272 11.0342 19.6858 11.0676 19.5425 11.0676C19.3992 11.0676 19.2579 11.0342 19.1297 10.9701C18.8829 10.8456 13.0851 7.89818 13.0851 3.68699C13.0855 3.12882 13.2125 2.58061 13.4536 2.08256C13.0655 2.03561 12.6704 2.01144 12.2697 2.01144C6.90072 2.01144 2.5508 6.34844 2.5508 11.698C2.5508 13.0825 2.47073 14.3844 1.65964 15.5765C1.53538 15.7577 1.40233 15.9397 1.26768 16.124C0.733359 16.855 0.17389 17.6204 0.038753 18.5044Z" fill="#F6B6A9"/>
<path d="M24.155 3.68699C24.155 3.19766 23.9606 2.72838 23.6146 2.38238C23.2686 2.03638 22.7993 1.84199 22.31 1.84199C21.8207 1.84199 21.3514 2.03638 21.0054 2.38238C20.6594 2.72838 20.465 3.19766 20.465 3.68699C20.465 3.93165 20.3678 4.16629 20.1948 4.33929C20.0218 4.51229 19.7872 4.60948 19.5425 4.60948C19.2979 4.60948 19.0632 4.51229 18.8902 4.33929C18.7172 4.16629 18.62 3.93165 18.62 3.68699C18.62 3.19766 18.4256 2.72838 18.0796 2.38238C17.7336 2.03638 17.2644 1.84199 16.775 1.84199C16.2857 1.84199 15.8164 2.03638 15.4704 2.38238C15.4297 2.42309 15.3911 2.46551 15.3547 2.50947C15.0814 2.83909 14.93 3.25524 14.93 3.68699C14.93 6.01398 17.9524 8.2003 19.5425 9.09858C20.0203 8.82901 20.6274 8.44305 21.243 7.97181C22.6761 6.87476 24.155 5.31558 24.155 3.68699Z" fill="#333F48"/>
</g>
<defs>
<clipPath id="clip0_23_133">
<rect width="26" height="28" fill="white"/>
</clipPath>
</defs>
</svg>
