<svg width="28" height="30" viewBox="0 0 28 30" fill="none" xmlns="http://www.w3.org/2000/svg">
<path d="M2.03711 17.7945C1.77366 19.5186 2.9499 20.7146 4.38958 21.3108C9.90961 23.5989 17.5904 23.5989 23.1104 21.3108C24.5501 20.7146 25.7263 19.5174 25.4629 17.7945C25.3021 16.7345 24.5019 15.8526 23.9094 14.9905C23.1339 13.8477 23.0572 12.6022 23.056 11.2763C23.0572 6.15333 18.8915 2.00003 13.75 2.00003C8.60845 2.00003 4.44277 6.15333 4.44277 11.2763C4.44277 12.6022 4.36608 13.8489 3.58935 14.9905C2.99814 15.8526 2.19914 16.7345 2.03711 17.7945Z" stroke="#333F48" stroke-width="2.5" stroke-linecap="round" stroke-linejoin="round"/>
<path d="M8.80273 23.0263C9.36921 25.1599 11.3704 26.7369 13.7501 26.7369C16.131 26.7369 18.1298 25.1599 18.6975 23.0263" stroke="#333F48" stroke-width="2.5" stroke-linecap="round" stroke-linejoin="round"/>
</svg>
