<svg width="39" height="39" viewBox="0 0 39 39" fill="none" xmlns="http://www.w3.org/2000/svg">
<path d="M3.26741 19.0579C3.26591 21.1662 4.08771 23.1475 5.57891 24.6387C7.0701 26.1299 9.05139 26.9487 11.1582 26.9487L19.3164 26.9487L19.3493 26.9487L19.3956 26.9472L19.4046 26.9472L20.4595 26.9352C20.9272 26.9188 21.2783 26.726 21.5368 26.4676L27.6331 26.4676C29.6114 26.4705 31.4731 25.6995 32.8732 24.2995C34.2732 22.8994 35.0442 21.0377 35.0457 19.0579C35.0472 17.0781 34.2747 15.2149 32.8747 13.8148C31.4746 12.4148 29.6128 11.6438 27.6316 11.6438L21.4068 11.6438C21.1408 11.3778 20.7807 11.1761 20.2936 11.1671L19.4838 11.1761C19.4539 11.1731 19.4255 11.1656 19.3941 11.1671H11.1582C6.80563 11.1656 3.26591 14.7053 3.26741 19.0579Z" fill="#333F48"/>
<path d="M33.1347 19.0564C33.1347 20.5267 32.5624 21.9088 31.524 22.9473C30.484 23.9872 29.1034 24.558 27.6331 24.558L20.479 24.558C20.2474 24.183 19.3434 22.499 19.3434 19.0564C19.3419 15.6034 20.2504 13.9209 20.4775 13.5533L27.6316 13.5533C29.1019 13.5533 30.4825 14.1271 31.521 15.1656C32.5594 16.204 33.1347 17.5861 33.1347 19.0564ZM5.94505 20.8061C5.97494 20.833 6.00482 20.8599 6.02723 20.8763C6.22745 21.0317 6.44262 21.1662 6.66226 21.2932C6.79226 21.3664 6.92075 21.4411 7.05374 21.5054C8.10564 22.0104 9.28306 22.2345 10.4455 22.2345L16.7271 22.2345L17.0065 22.2331C17.3965 23.7407 17.903 24.4026 17.903 24.4026L10.444 24.4026C10.1601 24.4026 9.88223 24.3757 9.60431 24.3339C8.54344 24.1725 7.53935 23.7123 6.72053 23.007C6.32756 22.6679 5.98091 22.2794 5.68656 21.8505C5.53116 21.6234 4.88867 20.7419 5.23382 20.4654C5.43105 20.31 5.75081 20.6298 5.94505 20.8061Z" fill="white"/>
<path d="M21.4681 16.6507L26.9428 16.6507C27.911 16.6507 28.8957 16.8375 29.7712 17.2589C30.0746 17.4038 30.3614 17.5771 30.6274 17.7833C30.7664 17.8924 31.0981 18.2779 31.2893 18.1255C31.5777 17.8939 31.0413 17.1603 30.9113 16.9705C30.6663 16.6149 30.3764 16.2892 30.0492 16.0068C29.19 15.2641 28.0798 14.8413 26.9413 14.8413L21.8252 14.8413C21.8282 14.8383 21.4412 15.7752 21.4681 16.6507Z" fill="#333F48"/>
</svg>
