<svg width="60" height="52" viewBox="0 0 60 52" fill="none" xmlns="http://www.w3.org/2000/svg">
<g clip-path="url(#clip0_29_299)">
<path d="M51.4286 17.3229C51.4286 15.0239 50.5255 12.819 48.9181 11.1934C47.3106 9.5677 45.1304 8.65442 42.8571 8.65442C40.5839 8.65442 38.4037 9.5677 36.7962 11.1934C35.1888 12.819 34.2857 15.0239 34.2857 17.3229C34.2857 18.4724 33.8342 19.5749 33.0305 20.3877C32.2267 21.2005 31.1366 21.6572 30 21.6572C28.8634 21.6572 27.7733 21.2005 26.9695 20.3877C26.1658 19.5749 25.7143 18.4724 25.7143 17.3229C25.7143 15.0239 24.8112 12.819 23.2038 11.1934C21.5963 9.5677 19.4161 8.65442 17.1429 8.65442C14.8696 8.65442 12.6894 9.5677 11.0819 11.1934C9.47449 12.819 8.57143 15.0239 8.57143 17.3229C8.57143 28.2561 22.6125 38.5282 30 42.7487C37.3875 38.5336 51.4286 28.2615 51.4286 17.3229Z" fill="#F6B6A9"/>
<path fill-rule="evenodd" clip-rule="evenodd" d="M60 17.3229C60 37.1088 33.0643 50.9567 31.9179 51.5418C31.3224 51.8431 30.6658 52 30 52C29.3342 52 28.6776 51.8431 28.0821 51.5418C26.9357 50.9567 0 37.1088 0 17.3229C0.00282806 13.8026 1.06525 10.3666 3.04598 7.47175C5.02671 4.57694 7.83188 2.36052 11.0885 1.11723C14.345 -0.126045 17.8987 -0.337268 21.2769 0.511657C24.655 1.36058 27.6976 3.22942 30 5.86966C32.3024 3.22942 35.345 1.36058 38.7231 0.511657C42.1013 -0.337268 45.655 -0.126045 48.9115 1.11723C52.1681 2.36052 54.9733 4.57694 56.954 7.47175C58.9348 10.3666 59.9972 13.8026 60 17.3229ZM48.9181 11.1934C50.5255 12.819 51.4286 15.0239 51.4286 17.3229C51.4286 28.2615 37.3875 38.5336 30 42.7487C22.6125 38.5282 8.57143 28.2561 8.57143 17.3229C8.57143 15.0239 9.47449 12.819 11.0819 11.1934C12.6894 9.5677 14.8696 8.65442 17.1429 8.65442C19.4161 8.65442 21.5963 9.5677 23.2038 11.1934C24.8112 12.819 25.7143 15.0239 25.7143 17.3229C25.7143 18.4724 26.1658 19.5749 26.9695 20.3877C27.7733 21.2005 28.8634 21.6572 30 21.6572C31.1366 21.6572 32.2267 21.2005 33.0305 20.3877C33.8342 19.5749 34.2857 18.4724 34.2857 17.3229C34.2857 15.0239 35.1888 12.819 36.7962 11.1934C38.4037 9.5677 40.5839 8.65442 42.8571 8.65442C45.1304 8.65442 47.3106 9.5677 48.9181 11.1934Z" fill="#F6B6A9"/>
<path d="M36 37.6667C36 37.6667 34 40.6667 30 40.6667C26 40.6667 24 37.6667 24 37.6667" stroke="white" stroke-width="2.66667" stroke-linecap="round" stroke-linejoin="round"/>
<path d="M19.0188 18.1059C19.0188 18.1059 17.8914 17.4552 16.3273 18.0307C14.7632 18.6063 14.3264 19.8326 14.3264 19.8326" stroke="#333F48" stroke-linecap="round" stroke-linejoin="round"/>
<path d="M40 17.9385C40 17.9385 41.1274 17.2877 42.6915 17.8633C44.2556 18.4388 44.6924 19.6651 44.6924 19.6651" stroke="#333F48" stroke-linecap="round" stroke-linejoin="round"/>
<path d="M20.3333 28.6667C19.9797 28.6667 19.6406 28.5262 19.3905 28.2761C19.1405 28.0261 19 27.687 19 27.3333C19 26.9797 19.1405 26.6406 19.3905 26.3905C19.6406 26.1405 19.9797 26 20.3333 26C20.687 26 21.0261 26.1405 21.2761 26.3905C21.5262 26.6406 21.6667 26.9797 21.6667 27.3333C21.6667 27.687 21.5262 28.0261 21.2761 28.2761C21.0261 28.5262 20.687 28.6667 20.3333 28.6667ZM39 28.6667C38.6464 28.6667 38.3072 28.5262 38.0572 28.2761C37.8071 28.0261 37.6667 27.687 37.6667 27.3333C37.6667 26.9797 37.8071 26.6406 38.0572 26.3905C38.3072 26.1405 38.6464 26 39 26C39.3536 26 39.6928 26.1405 39.9428 26.3905C40.1929 26.6406 40.3333 26.9797 40.3333 27.3333C40.3333 27.687 40.1929 28.0261 39.9428 28.2761C39.6928 28.5262 39.3536 28.6667 39 28.6667Z" stroke="#333F48" stroke-width="2.66667" stroke-linecap="round" stroke-linejoin="round"/>
</g>
<defs>
<clipPath id="clip0_29_299">
<rect width="60" height="52" fill="white"/>
</clipPath>
</defs>
</svg>
